<mxfile host="app.diagrams.net" modified="2023-08-07T00:05:44.410Z" agent="Mozilla/5.0 (Windows NT 10.0; Win64; x64) AppleWebKit/537.36 (KHTML, like Gecko) Chrome/115.0.0.0 Safari/537.36" etag="xTEkmslhxqIl3QVi8FqK" version="21.6.6" type="device">
  <diagram name="Page-1" id="FlkVkePXv6d_0SATbCJ9">
    <mxGraphModel dx="1222" dy="1714" grid="1" gridSize="10" guides="1" tooltips="1" connect="1" arrows="1" fold="1" page="1" pageScale="1" pageWidth="850" pageHeight="1100" math="0" shadow="0">
      <root>
        <mxCell id="0" />
        <mxCell id="1" parent="0" />
        <mxCell id="du7n_s3l0rOqjri6RlWA-12" value="" style="shape=image;verticalLabelPosition=bottom;labelBackgroundColor=default;verticalAlign=top;aspect=fixed;imageAspect=0;image=data:image/svg+xml,PHN2ZyB4bWxucz0iaHR0cDovL3d3dy53My5vcmcvMjAwMC9zdmciIGhlaWdodD0iMjUwIiB3aWR0aD0iMjUwIiB2aWV3Qm94PSIwIDAgMjUwIDI1MCI+JiN4YTsJPGRlZnM+JiN4YTsJCTxmaWx0ZXIgaWQ9ImYiPiYjeGE7CQkJPGZlR2F1c3NpYW5CbHVyIHN0ZERldmlhdGlvbj0iMy41Ii8+JiN4YTsJCTwvZmlsdGVyPiYjeGE7CTwvZGVmcz4mI3hhOwk8Y2lyY2xlIGZpbHRlcj0idXJsKCNmKSIgb3BhY2l0eT0iMC41IiBmaWxsPSIjN2Y3ZjdmIiByPSIxMTYuNiIgY3k9IjEyNSIgY3g9IjEyNSIvPiYjeGE7CTxjaXJjbGUgZmlsbD0iI2ZmZiIgcj0iMTEzLjIiIGN5PSIxMjUiIGN4PSIxMjUiLz4mI3hhOwk8cGF0aCBkPSJtMTI1LDExLjggYTU2LjYsNTYuNiAwIDAgMSAwLDExMy4yIDU2LjYsNTYuNiAwIDAgMCAwLDExMy4yIDExMy4yLDExMy4yIDAgMCAwIDAsLTIyNi40Ii8+JiN4YTsJPGNpcmNsZSByPSIxNy42IiBjeT0iNjguNCIgY3g9IjEyNSIvPiYjeGE7CTxjaXJjbGUgZmlsbD0iI2ZmZiIgcj0iMTcuNiIgY3k9IjE4MS42IiBjeD0iMTI1Ii8+JiN4YTs8L3N2Zz4=;rotation=90;fillOpacity=38;clipPath=inset(1.6% 2% 2% 2.4%);" vertex="1" parent="1">
          <mxGeometry x="166.745" y="-9.960000000000008" width="406.51" height="409.92" as="geometry" />
        </mxCell>
        <mxCell id="du7n_s3l0rOqjri6RlWA-1" value="Data:&lt;br style=&quot;font-size: 20px;&quot;&gt;observational&lt;br style=&quot;font-size: 20px;&quot;&gt;interventional" style="text;html=1;strokeColor=none;fillColor=none;align=center;verticalAlign=middle;whiteSpace=wrap;rounded=0;fontSize=20;fontStyle=1;fontColor=#000000;" vertex="1" parent="1">
          <mxGeometry x="210" y="156" width="130" height="78" as="geometry" />
        </mxCell>
        <mxCell id="du7n_s3l0rOqjri6RlWA-6" style="edgeStyle=orthogonalEdgeStyle;rounded=0;orthogonalLoop=1;jettySize=auto;html=1;entryX=1;entryY=0.5;entryDx=0;entryDy=0;strokeColor=#000000;strokeWidth=2;" edge="1" parent="1" source="du7n_s3l0rOqjri6RlWA-2" target="du7n_s3l0rOqjri6RlWA-3">
          <mxGeometry relative="1" as="geometry">
            <Array as="points">
              <mxPoint x="464" y="310" />
            </Array>
          </mxGeometry>
        </mxCell>
        <mxCell id="du7n_s3l0rOqjri6RlWA-2" value="Hypothesis" style="text;html=1;strokeColor=none;fillColor=none;align=center;verticalAlign=middle;whiteSpace=wrap;rounded=0;fontSize=20;fontStyle=1;fontColor=#000000;" vertex="1" parent="1">
          <mxGeometry x="409" y="166" width="110" height="58" as="geometry" />
        </mxCell>
        <mxCell id="du7n_s3l0rOqjri6RlWA-3" value="Experiments Simulations" style="text;html=1;strokeColor=none;fillColor=none;align=center;verticalAlign=middle;whiteSpace=wrap;rounded=0;fontSize=20;fontStyle=1;fontColor=#000000;" vertex="1" parent="1">
          <mxGeometry x="307.5" y="290" width="125" height="40" as="geometry" />
        </mxCell>
        <mxCell id="du7n_s3l0rOqjri6RlWA-4" value="AI for science:&lt;br style=&quot;font-size: 20px;&quot;&gt;predictions&lt;br style=&quot;font-size: 20px;&quot;&gt;structures&lt;br style=&quot;font-size: 20px;&quot;&gt;actions" style="text;html=1;strokeColor=none;fillColor=none;align=center;verticalAlign=middle;whiteSpace=wrap;rounded=0;fontSize=20;fontStyle=1" vertex="1" parent="1">
          <mxGeometry x="297.5" y="42" width="145" height="70" as="geometry" />
        </mxCell>
        <mxCell id="du7n_s3l0rOqjri6RlWA-5" value="&lt;span style=&quot;font-weight: normal; font-size: 20px;&quot;&gt;hypothesis-driven&lt;/span&gt;" style="text;html=1;strokeColor=default;fillColor=none;align=center;verticalAlign=middle;whiteSpace=wrap;rounded=0;fontSize=20;fontStyle=1;fontColor=#000000;" vertex="1" parent="1">
          <mxGeometry x="166.75" y="336" width="173.25" height="34" as="geometry" />
        </mxCell>
        <mxCell id="du7n_s3l0rOqjri6RlWA-7" style="edgeStyle=orthogonalEdgeStyle;rounded=0;orthogonalLoop=1;jettySize=auto;html=1;entryX=0.5;entryY=1;entryDx=0;entryDy=0;exitX=0;exitY=0.5;exitDx=0;exitDy=0;strokeColor=#000000;strokeWidth=2;" edge="1" parent="1" source="du7n_s3l0rOqjri6RlWA-3" target="du7n_s3l0rOqjri6RlWA-1">
          <mxGeometry relative="1" as="geometry">
            <mxPoint x="555" y="230" as="sourcePoint" />
            <mxPoint x="460" y="280" as="targetPoint" />
            <Array as="points">
              <mxPoint x="275" y="310" />
            </Array>
          </mxGeometry>
        </mxCell>
        <mxCell id="du7n_s3l0rOqjri6RlWA-8" style="edgeStyle=orthogonalEdgeStyle;rounded=0;orthogonalLoop=1;jettySize=auto;html=1;exitX=0.5;exitY=0;exitDx=0;exitDy=0;strokeColor=#000000;strokeWidth=2;" edge="1" parent="1" source="du7n_s3l0rOqjri6RlWA-1" target="du7n_s3l0rOqjri6RlWA-4">
          <mxGeometry relative="1" as="geometry">
            <mxPoint x="350" y="280" as="sourcePoint" />
            <mxPoint x="240" y="230" as="targetPoint" />
            <Array as="points">
              <mxPoint x="275" y="77" />
            </Array>
          </mxGeometry>
        </mxCell>
        <mxCell id="du7n_s3l0rOqjri6RlWA-9" style="edgeStyle=orthogonalEdgeStyle;rounded=0;orthogonalLoop=1;jettySize=auto;html=1;exitX=1;exitY=0.5;exitDx=0;exitDy=0;strokeColor=#000000;strokeWidth=2;" edge="1" parent="1" source="du7n_s3l0rOqjri6RlWA-4" target="du7n_s3l0rOqjri6RlWA-2">
          <mxGeometry relative="1" as="geometry">
            <mxPoint x="240" y="190" as="sourcePoint" />
            <mxPoint x="330" y="130" as="targetPoint" />
            <Array as="points">
              <mxPoint x="464" y="77" />
            </Array>
          </mxGeometry>
        </mxCell>
        <mxCell id="du7n_s3l0rOqjri6RlWA-10" value="&lt;span style=&quot;font-weight: normal; font-size: 20px;&quot;&gt;data-driven&lt;/span&gt;" style="text;html=1;strokeColor=default;fillColor=none;align=center;verticalAlign=middle;whiteSpace=wrap;rounded=0;fontSize=20;fontStyle=1" vertex="1" parent="1">
          <mxGeometry x="460" y="39" width="113.25" height="24" as="geometry" />
        </mxCell>
      </root>
    </mxGraphModel>
  </diagram>
</mxfile>
